<?xml version="1.0" encoding="utf-8"?>
<svg version="1.1" xmlns="http://www.w3.org/2000/svg" width="198" height="196">
  <path d="M0 0 C1.28648438 -0.01675781 2.57296875 -0.03351562 3.8984375 -0.05078125 C7.85005256 0.33443909 10.2695492 1.22928206 13.625 3.3125 C14.97939668 6.02129335 14.69001451 8.32183268 14.625 11.3125 C15.718125 11.374375 16.81125 11.43625 17.9375 11.5 C31.9760941 13.30425593 45.88813618 23.65497025 54.625 34.3125 C59.84174179 41.8576425 64.625 49.92324606 64.625 59.3125 C61.50884626 60.22601606 58.72334526 60.43812853 55.4811554 60.43948364 C54.44216095 60.44230347 53.4031665 60.44512329 52.33268738 60.44802856 C50.63140434 60.44499222 50.63140434 60.44499222 48.89575195 60.44189453 C47.69708496 60.44364685 46.49841797 60.44539917 45.26342773 60.44720459 C41.98063066 60.4508507 38.69787392 60.44999774 35.41507745 60.4468255 C31.98156668 60.44429362 28.5480586 60.4466416 25.11454773 60.44821167 C19.35199499 60.4500302 13.58945508 60.44763457 7.8269043 60.44287109 C1.15693713 60.43742134 -5.5129995 60.43919757 -12.18296593 60.4446975 C-17.90615974 60.44922841 -23.62934434 60.44987952 -29.35253936 60.44725883 C-32.77250883 60.44569693 -36.19246392 60.44550009 -39.61243248 60.44879532 C-43.41962155 60.45131964 -47.22675095 60.44748473 -51.03393555 60.44189453 C-52.74432762 60.44493088 -52.74432762 60.44493088 -54.48927307 60.44802856 C-55.51980804 60.44520874 -56.55034302 60.44238892 -57.61210632 60.43948364 C-58.51303355 60.43910662 -59.41396078 60.43872959 -60.34218884 60.43834114 C-62.375 60.3125 -62.375 60.3125 -63.375 59.3125 C-63.43903089 52.0257847 -62.03457295 46.56918924 -58.375 40.3125 C-57.715 40.3125 -57.055 40.3125 -56.375 40.3125 C-56.12234375 39.58546875 -55.8696875 38.8584375 -55.609375 38.109375 C-50.99937748 27.66393758 -39.69303546 19.81119493 -29.37597656 15.47167969 C-25.10496105 13.86670087 -20.75883877 12.57589798 -16.375 11.3125 C-14.37206081 10.65471656 -12.37100929 9.99102145 -10.375 9.3125 C-11.365 8.3225 -12.355 7.3325 -13.375 6.3125 C-12.46496313 4.03740781 -11.80097588 2.60574426 -9.7578125 1.19921875 C-6.45081702 -0.03141727 -3.5210886 0.01054218 0 0 Z M-28.4609375 22.734375 C-38.54680544 28.1964268 -46.63915043 36.32470714 -50.375 47.3125 C-50.375 48.3025 -50.375 49.2925 -50.375 50.3125 C-47.50135209 50.72996608 -47.50135209 50.72996608 -44.375 50.3125 C-42.78157971 48.0681029 -42.78157971 48.0681029 -41.375 45.3125 C-40.85679688 44.46429688 -40.33859375 43.61609375 -39.8046875 42.7421875 C-39.29164062 41.89914063 -38.77859375 41.05609375 -38.25 40.1875 C-37.73179688 39.33929688 -37.21359375 38.49109375 -36.6796875 37.6171875 C-35.25493639 35.27258892 -35.25493639 35.27258892 -34.375 32.3125 C-33.715 32.3125 -33.055 32.3125 -32.375 32.3125 C-31.2730043 31.17606693 -30.17301131 30.03763727 -29.08203125 28.890625 C-25.52563585 25.60279035 -21.38383011 23.01359524 -17.375 20.3125 C-21.84496446 18.82251185 -24.34618905 20.7584272 -28.4609375 22.734375 Z " transform="translate(101.375,52.6875)" style="fill: rgb(243, 118, 6);"/>
  <path d="M0 0 C5.57583987 0.41461373 10.86220753 1.9438924 16.25 3.375 C35.17319642 8.23420338 54.0014237 10.32730979 73.5390625 9.83984375 C76.92445279 9.99650402 79.04310172 10.38277946 82 12 C84.178657 15.26798549 84.72208564 16.20905038 84 20 C77.33807645 26.66192355 71.04311968 28.43784768 61.8125 28.625 C60.02723585 28.67604401 58.24206721 28.73058031 56.45703125 28.7890625 C55.67303955 28.80662598 54.88904785 28.82418945 54.08129883 28.84228516 C51.80448614 28.92981531 51.80448614 28.92981531 49 30 C67.17784884 38.28647884 87.38450252 41.8580566 106.70166016 35.13305664 C114.18349841 32.31095975 120.86925759 29.17281391 127 24 C127.66 24 128.32 24 129 24 C129 23.34 129 22.68 129 22 C130.58994115 20.54082037 132.24987572 19.15750645 133.9375 17.8125 C134.93652344 17.01457031 135.93554688 16.21664062 136.96484375 15.39453125 C137.96644531 14.60433594 138.96804687 13.81414062 140 13 C140.86753906 12.30261719 141.73507813 11.60523438 142.62890625 10.88671875 C148.36890063 6.31930971 151.46724769 4.8578726 159 5 C159.99 6.98 159.99 6.98 161 9 C155.88376267 16.50613504 150.76775526 23.97217208 145 31 C144.07960937 32.12341797 144.07960937 32.12341797 143.140625 33.26953125 C138.88387777 38.26695249 134.31098146 42.37935631 129.1015625 46.37109375 C126.94076926 47.97543296 126.94076926 47.97543296 125 50 C123.67661368 50.68620031 122.34050052 51.34786461 121 52 C119.81099409 52.7058026 118.62360708 53.41433668 117.4375 54.125 C114 56 114 56 111 56 C111 56.66 111 57.32 111 58 C110.2575 58.144375 109.515 58.28875 108.75 58.4375 C107.1558712 58.7635718 105.56636337 59.1219603 104 59.5625 C101.62784655 60.08140857 99.42075428 60.06724317 97 60 C97 60.66 97 61.32 97 62 C58.87960302 64.20668559 58.87960302 64.20668559 43 56 C41.906875 55.54625 40.81375 55.0925 39.6875 54.625 C36.33763857 53.18258908 33.03923177 51.63801438 29.75 50.0625 C28.73421875 49.57910156 27.7184375 49.09570312 26.671875 48.59765625 C23.95186823 46.97121945 22.75029421 45.58529695 21 43 C18.91665365 41.7483533 18.91665365 41.7483533 17 41 C17 40.34 17 39.68 17 39 C16.34 39 15.68 39 15 39 C13.31560426 36.95206561 11.77173177 34.91482787 10.25 32.75 C9.80479004 32.1204541 9.35958008 31.4909082 8.90087891 30.84228516 C-1 16.54580386 -1 16.54580386 -1 9 C-1.66 8.67 -2.32 8.34 -3 8 C-2.25 2.25 -2.25 2.25 0 0 Z " transform="translate(18,117)" style="fill: rgb(255, 255, 255);"/>
  <path d="M0 0 C1.28648438 -0.01675781 2.57296875 -0.03351562 3.8984375 -0.05078125 C7.81649454 0.33116771 10.25501614 1.33537324 13.625 3.3125 C13.295 3.9725 12.965 4.6325 12.625 5.3125 C11.635 4.6525 10.645 3.9925 9.625 3.3125 C6.29553975 2.99369814 6.29553975 2.99369814 2.625 3.0625 C1.3875 3.05734375 0.15 3.0521875 -1.125 3.046875 C-4.52173144 3.05998639 -4.52173144 3.05998639 -7.375 5.3125 C-6.055 6.6325 -4.735 7.9525 -3.375 9.3125 C-3.705 10.3025 -4.035 11.2925 -4.375 12.3125 C-8.005 12.6425 -11.635 12.9725 -15.375 13.3125 C-15.375 14.3025 -15.375 15.2925 -15.375 16.3125 C-13.065 16.3125 -10.755 16.3125 -8.375 16.3125 C-8.375 16.9725 -8.375 17.6325 -8.375 18.3125 C-9.99712059 18.84223311 -11.62281584 19.36103107 -13.25 19.875 C-14.15492187 20.16503906 -15.05984375 20.45507812 -15.9921875 20.75390625 C-18.375 21.3125 -18.375 21.3125 -20.375 20.3125 C-31.09264763 23.83008692 -40.64034959 30.49910128 -46.375 40.3125 C-47.88077211 43.59142432 -49.1882906 46.90594597 -50.375 50.3125 C-48.395 50.3125 -46.415 50.3125 -44.375 50.3125 C-44.375 50.6425 -44.375 50.9725 -44.375 51.3125 C-46.685 51.3125 -48.995 51.3125 -51.375 51.3125 C-51.375 48.0125 -51.375 44.7125 -51.375 41.3125 C-53.85 41.8075 -53.85 41.8075 -56.375 42.3125 C-56.519375 43.09625 -56.66375 43.88 -56.8125 44.6875 C-57.375 47.3125 -57.375 47.3125 -58.375 49.3125 C-59.035 49.3125 -59.695 49.3125 -60.375 49.3125 C-60.519375 50.055 -60.66375 50.7975 -60.8125 51.5625 C-61.27531411 53.82514678 -61.81486518 56.0719607 -62.375 58.3125 C-20.795 58.3125 20.785 58.3125 63.625 58.3125 C63.955 57.3225 64.285 56.3325 64.625 55.3125 C64.625 56.6325 64.625 57.9525 64.625 59.3125 C61.50884626 60.22601606 58.72334526 60.43812853 55.4811554 60.43948364 C54.44216095 60.44230347 53.4031665 60.44512329 52.33268738 60.44802856 C50.63140434 60.44499222 50.63140434 60.44499222 48.89575195 60.44189453 C47.69708496 60.44364685 46.49841797 60.44539917 45.26342773 60.44720459 C41.98063066 60.4508507 38.69787392 60.44999774 35.41507745 60.4468255 C31.98156668 60.44429362 28.5480586 60.4466416 25.11454773 60.44821167 C19.35199499 60.4500302 13.58945508 60.44763457 7.8269043 60.44287109 C1.15693713 60.43742134 -5.5129995 60.43919757 -12.18296593 60.4446975 C-17.90615974 60.44922841 -23.62934434 60.44987952 -29.35253936 60.44725883 C-32.77250883 60.44569693 -36.19246392 60.44550009 -39.61243248 60.44879532 C-43.41962155 60.45131964 -47.22675095 60.44748473 -51.03393555 60.44189453 C-52.74432762 60.44493088 -52.74432762 60.44493088 -54.48927307 60.44802856 C-55.51980804 60.44520874 -56.55034302 60.44238892 -57.61210632 60.43948364 C-58.51303355 60.43910662 -59.41396078 60.43872959 -60.34218884 60.43834114 C-62.375 60.3125 -62.375 60.3125 -63.375 59.3125 C-63.43903089 52.0257847 -62.03457295 46.56918924 -58.375 40.3125 C-57.715 40.3125 -57.055 40.3125 -56.375 40.3125 C-56.12234375 39.58546875 -55.8696875 38.8584375 -55.609375 38.109375 C-50.99937748 27.66393758 -39.69303546 19.81119493 -29.37597656 15.47167969 C-25.10496105 13.86670087 -20.75883877 12.57589798 -16.375 11.3125 C-14.37206081 10.65471656 -12.37100929 9.99102145 -10.375 9.3125 C-11.365 8.3225 -12.355 7.3325 -13.375 6.3125 C-12.46496313 4.03740781 -11.80097588 2.60574426 -9.7578125 1.19921875 C-6.45081702 -0.03141727 -3.5210886 0.01054218 0 0 Z " transform="translate(101.375,52.6875)" style="fill: rgb(243, 118, 6);"/>
  <path d="M0 0 C0.80774305 -0.00906876 1.61548611 -0.01813751 2.44770622 -0.02748108 C3.18515855 -0.03825432 3.92261087 -0.04902756 4.68241024 -0.06012726 C6.55560112 0.04075623 6.55560112 0.04075623 8.55560112 1.04075623 C8.55560112 2.36075623 8.55560112 3.68075623 8.55560112 5.04075623 C-4.92550742 6.32844262 -18.4299679 6.1928334 -31.9595356 6.17112732 C-35.93499757 6.1657689 -39.91034659 6.17109697 -43.88580513 6.17747498 C-73.61179043 6.18818587 -73.61179043 6.18818587 -80.44439888 5.04075623 C-81.10439888 4.38075623 -81.76439888 3.72075623 -82.44439888 3.04075623 C-82.11439888 2.38075623 -81.78439888 1.72075623 -81.44439888 1.04075623 C-71.29952311 0.90969351 -61.15463951 0.77925639 -51.0097456 0.6496048 C-46.29842488 0.58937481 -41.58710706 0.52893416 -36.87579536 0.46800232 C-32.32409415 0.40914265 -27.77238599 0.35084909 -23.22067261 0.29293823 C-21.48926157 0.27081211 -19.75785307 0.2484864 -18.0264473 0.22595215 C-15.59033158 0.19428113 -13.15420758 0.16333765 -10.71808052 0.1325531 C-10.01172966 0.12320236 -9.3053788 0.11385162 -8.57762337 0.10421753 C-7.228061 0.08744661 -5.87846943 0.07285851 -4.52885818 0.06063843 C-3.01917215 0.04623859 -1.5095449 0.02516911 0 0 Z " transform="translate(138.44439888000488,113.95924377441406)" style="fill: rgb(243, 118, 6);"/>
  <path d="M0 0 C0.8125 1.6875 0.8125 1.6875 1 4 C-0.13755273 5.20957655 -1.28693829 6.41006952 -2.49145508 7.55297852 C-4.06231355 9.0597722 -5.53772728 10.6287523 -7.015625 12.2265625 C-18.61965896 24.52944134 -18.61965896 24.52944134 -28.328125 25.1484375 C-30.21910839 25.18149665 -32.11153486 25.10300719 -34 25 C-32.76448756 21.29346269 -31.03334922 20.35084565 -28 18 C-27.67 17.34 -27.34 16.68 -27 16 C-26.34 16 -25.68 16 -25 16 C-24.938125 15.4225 -24.87625 14.845 -24.8125 14.25 C-23.67366804 11.0963115 -21.63678864 10.03751849 -19 8 C-18.21625 6.989375 -17.4325 5.97875 -16.625 4.9375 C-11.67912485 -0.59716981 -7.12231376 -1.59888676 0 0 Z " transform="translate(139,127)" style="fill: rgb(255, 255, 255);"/>
  <path d="M0 0 C-0.08121094 0.70125 -0.16242188 1.4025 -0.24609375 2.125 C-0.72967912 8.00031312 -0.72967912 8.00031312 1.55859375 13.23046875 C2.84183109 14.52403396 4.12952932 15.81319073 5.421875 17.09765625 C7.20036731 19.24153188 7.60415399 20.36955217 7.75 23.125 C6.83926424 27.83046809 5.52545833 29.78110326 2 33 C-1.3125 34.375 -1.3125 34.375 -4 35 C-4.495 33.515 -4.495 33.515 -5 32 C-4.33333333 30.66666667 -3.66666667 29.33333333 -3 28 C-2.83249586 25.33290931 -2.83249586 25.33290931 -3 23 C-3.66 22.67 -4.32 22.34 -5 22 C-8.75232355 18.85288993 -10.54990566 15.6725262 -12 11 C-11.43570761 6.96934008 -10.07295554 4.79541265 -7.125 2.125 C-4 0 -4 0 0 0 Z " fill="#FC7712" transform="translate(98,15)"/>
  <path d="M0 0 C-0.03255208 1.98567708 -0.06510417 3.97135417 -0.09765625 5.95703125 C-0.08263217 8.20305461 -0.08263217 8.20305461 1 11 C1.928125 11.433125 1.928125 11.433125 2.875 11.875 C5.81154786 13.42964298 6.69108463 14.96882758 8 18 C8 22.10406167 7.32423527 23.62456969 4.625 26.75 C2 29 2 29 -1 31 C-1.99 30.01 -2.98 29.02 -4 28 C-3.01 24.535 -3.01 24.535 -2 21 C-2.763125 20.278125 -3.52625 19.55625 -4.3125 18.8125 C-7.49593865 15.48099443 -10.70138279 11.77787539 -11 7 C-8.8460919 2.09387598 -5.55402871 -1.8513429 0 0 Z " transform="translate(121,22)" style="fill: rgb(243, 118, 6);"/>
  <path d="M0 0 C1.21236328 0.01353516 1.21236328 0.01353516 2.44921875 0.02734375 C3.37154297 0.04474609 3.37154297 0.04474609 4.3125 0.0625 C4.3125 1.3825 4.3125 2.7025 4.3125 4.0625 C2.29296875 5.88671875 2.29296875 5.88671875 -0.5 7.75 C-5.65571737 11.29580304 -10.42949787 15.11012205 -15.1796875 19.1796875 C-17.63510736 21.02316471 -19.84718873 21.9639824 -22.6875 23.0625 C-23.0175 23.7225 -23.3475 24.3825 -23.6875 25.0625 C-29.11057692 28.0625 -29.11057692 28.0625 -31.6875 28.0625 C-31.0275 26.4125 -30.3675 24.7625 -29.6875 23.0625 C-29.0275 23.0625 -28.3675 23.0625 -27.6875 23.0625 C-27.6875 22.4025 -27.6875 21.7425 -27.6875 21.0625 C-26.60099665 19.94094816 -25.50453956 18.82819685 -24.375 17.75 C-22.23143505 15.60643505 -20.25378127 13.33706252 -18.25 11.0625 C-8.23466818 -0.11934302 -8.23466818 -0.11934302 0 0 Z " transform="translate(159.6875,119.9375)" style="fill: rgb(255, 255, 255);"/>
  <path d="M0 0 C0.00257812 0.58007812 0.00515625 1.16015625 0.0078125 1.7578125 C0.15304656 6.56891276 0.15304656 6.56891276 2.40234375 10.65234375 C3.22412109 11.35037109 3.22412109 11.35037109 4.0625 12.0625 C6.57419773 14.26328369 7.53221124 15.63016473 7.8125 19 C7.54718563 22.53072196 6.3152178 24.17457587 3.75 26.5625 C1.921875 28.06640625 1.921875 28.06640625 0 29 C-2.234375 28.65234375 -2.234375 28.65234375 -4 28 C-3.67 27.278125 -3.34 26.55625 -3 25.8125 C-1.99396471 22.98302573 -1.83022598 20.97104534 -2 18 C-2.99 18 -3.98 18 -5 18 C-7.62294017 14.10533126 -8.96429915 12.05317512 -9.125 7.3125 C-7.67580517 3.04542633 -4.79341498 0 0 0 Z " transform="translate(76,26)" style="fill: rgb(243, 118, 6);"/>
  <path d="M0 0 C1.28648438 -0.01675781 2.57296875 -0.03351562 3.8984375 -0.05078125 C7.81649454 0.33116771 10.25501614 1.33537324 13.625 3.3125 C13.295 3.9725 12.965 4.6325 12.625 5.3125 C11.635 4.6525 10.645 3.9925 9.625 3.3125 C6.29553975 2.99369814 6.29553975 2.99369814 2.625 3.0625 C1.3875 3.05734375 0.15 3.0521875 -1.125 3.046875 C-4.52173144 3.05998639 -4.52173144 3.05998639 -7.375 5.3125 C-6.055 6.6325 -4.735 7.9525 -3.375 9.3125 C-3.705 10.3025 -4.035 11.2925 -4.375 12.3125 C-8.005 12.6425 -11.635 12.9725 -15.375 13.3125 C-15.375 14.3025 -15.375 15.2925 -15.375 16.3125 C-13.065 16.3125 -10.755 16.3125 -8.375 16.3125 C-8.375 16.9725 -8.375 17.6325 -8.375 18.3125 C-13.325 19.7975 -13.325 19.7975 -18.375 21.3125 C-19.035 20.3225 -19.695 19.3325 -20.375 18.3125 C-19.385 18.3125 -18.395 18.3125 -17.375 18.3125 C-17.375 17.6525 -17.375 16.9925 -17.375 16.3125 C-22.2083472 16.22916643 -26.61192563 16.35988513 -31.375 17.3125 C-28.80545001 14.74295001 -26.60419498 14.32925104 -23.125 13.3125 C-18.84676103 12.05071523 -14.59911649 10.74613953 -10.375 9.3125 C-11.365 8.3225 -12.355 7.3325 -13.375 6.3125 C-12.46496313 4.03740781 -11.80097588 2.60574426 -9.7578125 1.19921875 C-6.45081702 -0.03141727 -3.5210886 0.01054218 0 0 Z " transform="translate(101.375,52.6875)" style="fill: rgb(243, 118, 6);"/>
  <path d="M0 0 C0 0.66 0 1.32 0 2 C-0.99 2 -1.98 2 -3 2 C-3 2.66 -3 3.32 -3 4 C-3.71285156 4.31453125 -4.42570312 4.6290625 -5.16015625 4.953125 C-11.72539984 7.88302481 -11.72539984 7.88302481 -18 11.375 C-18.99 11.91125 -19.98 12.4475 -21 13 C-21.99 12.67 -22.98 12.34 -24 12 C-23.1875 10.0625 -23.1875 10.0625 -22 8 C-21.01 7.67 -20.02 7.34 -19 7 C-19.99 6.34 -20.98 5.68 -22 5 C-14.81694536 -0.38729098 -8.81119453 -1.57342759 0 0 Z " transform="translate(84,69)" style="fill: rgb(243, 118, 6);"/>
  <path d="M0 0 C0 3.66666667 0 7.33333333 0 11 C-0.99 10.34 -1.98 9.68 -3 9 C-3.99 9 -4.98 9 -6 9 C-6.66 8.67 -7.32 8.34 -8 8 C-6.69844994 12.07964281 -6.69844994 12.07964281 -5 16 C-6.875 15.4375 -6.875 15.4375 -9 14 C-10.63426401 10.23408729 -11.4429295 8.14640577 -9.9375 4.25 C-6.87803134 0.69706866 -4.67783573 -1.55927858 0 0 Z " transform="translate(121,22)" style="fill: rgb(243, 118, 6);"/>
  <path d="M0 0 C1.21236328 0.01353516 1.21236328 0.01353516 2.44921875 0.02734375 C3.37154297 0.04474609 3.37154297 0.04474609 4.3125 0.0625 C4.3125 1.3825 4.3125 2.7025 4.3125 4.0625 C3.6525 4.0625 2.9925 4.0625 2.3125 4.0625 C2.3125 3.4025 2.3125 2.7425 2.3125 2.0625 C0.51626144 2.45899413 -1.27448435 2.88043452 -3.0625 3.3125 C-4.06023437 3.54453125 -5.05796875 3.7765625 -6.0859375 4.015625 C-8.79975729 4.812025 -8.79975729 4.812025 -9.9296875 7.0390625 C-10.17976562 7.70679687 -10.42984375 8.37453125 -10.6875 9.0625 C-13.62361172 12.62777852 -16.25783417 13.85440932 -20.6875 15.0625 C-20.6875 13.0625 -20.6875 13.0625 -18.6875 10.875 C-7.21629288 -0.10458395 -7.21629288 -0.10458395 0 0 Z " transform="translate(159.6875,119.9375)" style="fill: rgb(255, 255, 255);"/>
  <path d="M0 0 C0.99 0.66 1.98 1.32 3 2 C3.67371422 7.05285667 3.62042358 9.01462138 0.875 13.375 C-2.08595209 16.07847799 -4.1327553 17.10064077 -8 18 C-8.33 17.01 -8.66 16.02 -9 15 C-8.33333333 13.66666667 -7.66666667 12.33333333 -7 11 C-6.83249586 8.33290931 -6.83249586 8.33290931 -7 6 C-7.66 5.67 -8.32 5.34 -9 5 C-8.01 4.67 -7.02 4.34 -6 4 C-5.731875 5.134375 -5.46375 6.26875 -5.1875 7.4375 C-4.5996875 9.2009375 -4.5996875 9.2009375 -4 11 C-3.01 11.33 -2.02 11.66 -1 12 C-0.67 10.68 -0.34 9.36 0 8 C0.33 8.33 0.66 8.66 1 9 C1.07427838 5.65747276 1.06546953 3.1964086 0 0 Z " transform="translate(102,32)" style="fill: rgb(243, 118, 6);"/>
  <path d="M0 0 C0.33 1.32 0.66 2.64 1 4 C0.443125 3.484375 -0.11375 2.96875 -0.6875 2.4375 C-2.89120923 0.78552676 -2.89120923 0.78552676 -5.4375 1 C-8.83463953 2.32571299 -10.52159422 4.34024746 -13 7 C-16.0833931 9.80381082 -19.12766683 12.3617052 -23 14 C-23 14.66 -23 15.32 -23 16 C-23.66 16 -24.32 16 -25 16 C-24.67651262 12.98078447 -24.12918552 12.1076546 -21.75 10.125 C-20.8425 9.42375 -19.935 8.7225 -19 8 C-18.21625 6.989375 -17.4325 5.97875 -16.625 4.9375 C-11.67912485 -0.59716981 -7.12231376 -1.59888676 0 0 Z " transform="translate(139,127)" style="fill: rgb(255, 255, 255);"/>
  <path d="M0 0 C6.50175291 0.88617866 12.96666903 1.97570762 19.4375 3.0625 C20.55060547 3.24876953 21.66371094 3.43503906 22.81054688 3.62695312 C25.5404893 4.08389628 28.27030201 4.54159932 31 5 C31 5.33 31 5.66 31 6 C21.96962677 7.2089048 14.69156559 6.7719047 6 4 C6 3.34 6 2.68 6 2 C3.03 1.505 3.03 1.505 0 1 C0 0.67 0 0.34 0 0 Z " transform="translate(33,121)" style="fill: rgb(255, 255, 255);"/>
  <path d="M0 0 C0.99 0 1.98 0 3 0 C3 0.66 3 1.32 3 2 C-0.82320557 3.42258812 -3.91281305 4.24042276 -8 4 C-8 4.66 -8 5.32 -8 6 C-13.28 6 -18.56 6 -24 6 C-16.41407644 2.20703822 -8.37560458 1.72539001 0 2 C0 1.34 0 0.68 0 0 Z " transform="translate(123,173)" style="fill: rgb(255, 255, 255);"/>
  <path d="M0 0 C0.82638376 2.89234315 1 4.88742431 1 8 C0.34 8 -0.32 8 -1 8 C-1.33 8.66 -1.66 9.32 -2 10 C-7.42307692 13 -7.42307692 13 -10 13 C-9.34 11.35 -8.68 9.7 -8 8 C-7.34 8 -6.68 8 -6 8 C-6 7.34 -6 6.68 -6 6 C-4.37550757 4.29220027 -2.70779973 2.62449243 -1 1 C-0.67 0.67 -0.34 0.34 0 0 Z " transform="translate(138,135)" style="fill: rgb(255, 255, 255);"/>
  <path d="M0 0 C0.66 0.33 1.32 0.66 2 1 C-1.625 6.75 -1.625 6.75 -5 9 C-5 10.32 -5 11.64 -5 13 C-5 13.66 -5 14.32 -5 15 C-5.8971875 15.3403125 -5.8971875 15.3403125 -6.8125 15.6875 C-9.56351888 17.33811133 -10.52484637 19.1972081 -12 22 C-12.66 21.67 -13.32 21.34 -14 21 C-12.70966095 18.72840311 -11.41778598 16.45770375 -10.125 14.1875 C-9.76019531 13.54490234 -9.39539062 12.90230469 -9.01953125 12.24023438 C-7.41916099 9.43231202 -5.79357134 6.69035702 -4 4 C-3.34 4 -2.68 4 -2 4 C-1.34 2.68 -0.68 1.36 0 0 Z " transform="translate(71,81)" style="fill: rgb(243, 118, 6);"/>
  <path d="M0 0 C1.32 0 2.64 0 4 0 C4 3.63 4 7.26 4 11 C2.35 10.67 0.7 10.34 -1 10 C-1.125 2.25 -1.125 2.25 0 0 Z " transform="translate(91,18)" style="fill: rgb(243, 118, 6);"/>
  <path d="M0 0 C0.33 0 0.66 0 1 0 C1 1.98 1 3.96 1 6 C2.6396875 6.0928125 2.6396875 6.0928125 4.3125 6.1875 C10.02200117 6.86402976 14.90705103 9.46288756 20 12 C17.37684968 13.31157516 15.76966564 12.89649988 12.875 12.5625 C11.50988281 12.40974609 11.50988281 12.40974609 10.1171875 12.25390625 C9.41851562 12.17011719 8.71984375 12.08632812 8 12 C8 11.01 8 10.02 8 9 C6.35 9 4.7 9 3 9 C3 8.34 3 7.68 3 7 C2.01 7 1.02 7 0 7 C0 4.69 0 2.38 0 0 Z " transform="translate(115,58)" style="fill: rgb(243, 118, 6);"/>
  <path d="M0 0 C-3.24365051 2.89801562 -5.48105658 3.41665477 -9.7890625 3.58203125 C-11.44808594 3.64874023 -11.44808594 3.64874023 -13.140625 3.71679688 C-14.29046875 3.74837891 -15.4403125 3.77996094 -16.625 3.8125 C-17.78257813 3.86341797 -18.94015625 3.91433594 -20.1328125 3.96679688 C-26.49744164 4.18613865 -26.49744164 4.18613865 -29 4 C-29.66 3.34 -30.32 2.68 -31 2 C-29.74703125 1.93941406 -28.4940625 1.87882813 -27.203125 1.81640625 C-25.55207276 1.73197744 -23.90103165 1.64733061 -22.25 1.5625 C-21.425 1.52318359 -20.6 1.48386719 -19.75 1.44335938 C-18.95078125 1.40146484 -18.1515625 1.35957031 -17.328125 1.31640625 C-16.5949707 1.27974854 -15.86181641 1.24309082 -15.10644531 1.20532227 C-12.30037469 0.93180518 -9.73885829 0.23834138 -7.0625 -0.625 C-4.48800126 -1.09309068 -2.51818343 -0.62954586 0 0 Z " transform="translate(94,142)" style="fill: rgb(255, 255, 255);"/>
  <path d="M0 0 C0 0.99 0 1.98 0 3 C2.31 3 4.62 3 7 3 C7 3.66 7 4.32 7 5 C2.05 6.485 2.05 6.485 -3 8 C-3.66 7.01 -4.32 6.02 -5 5 C-4.01 5 -3.02 5 -2 5 C-2 4.34 -2 3.68 -2 3 C-3.65 2.67 -5.3 2.34 -7 2 C-4 0 -4 0 0 0 Z " transform="translate(86,66)" style="fill: rgb(243, 118, 6);"/>
  <path d="M0 0 C1.30070613 2.60141226 0.99265049 4.4143763 0.875 7.3125 C0.81696412 11.73483442 1.07994524 14.4716005 4 18 C-0.6287703 16.53828306 -0.6287703 16.53828306 -2.25 14.1875 C-4.33470649 8.10710608 -4.33470649 8.10710608 -3.1875 4.3125 C-2 2 -2 2 0 0 Z " transform="translate(90,18)" style="fill: rgb(243, 118, 6);"/>
  <path d="M0 0 C-0.33 2.97 -0.66 5.94 -1 9 C-2.65 9.33 -4.3 9.66 -6 10 C-6.36567164 3.539801 -6.36567164 3.539801 -4.6875 1.0625 C-3 0 -3 0 0 0 Z " transform="translate(75,28)" style="fill: rgb(243, 118, 6);"/>
  <path d="M0 0 C0.33 0.66 0.66 1.32 1 2 C-3.21689436 5.23330113 -7.37805704 8.35888974 -12 11 C-12.99 11.66 -13.98 12.32 -15 13 C-13.51154587 9.4389135 -11.4999313 7.3579126 -8.625 4.8125 C-7.85414062 4.11769531 -7.08328125 3.42289062 -6.2890625 2.70703125 C-4.08721158 1.06503662 -2.68017114 0.40998052 0 0 Z " transform="translate(64,74)" style="fill: rgb(243, 118, 6);"/>
  <path d="M0 0 C0 0.66 0 1.32 0 2 C-3.47325181 3.1577506 -6.36067448 3.06866652 -10 3 C-10 3.66 -10 4.32 -10 5 C-10.66 5 -11.32 5 -12 5 C-12.33 4.01 -12.66 3.02 -13 2 C-8.3683343 -1.61848883 -5.49434694 -1.02436977 0 0 Z " transform="translate(84,69)" style="fill: rgb(243, 118, 6);"/>
  <path d="M0 0 C0.66 0 1.32 0 2 0 C2 0.66 2 1.32 2 2 C2.66 2 3.32 2 4 2 C3.67 4.31 3.34 6.62 3 9 C4.32 9.33 5.64 9.66 7 10 C4.525 11.485 4.525 11.485 2 13 C1.01 12.01 0.02 11.02 -1 10 C-0.649375 8.906875 -0.29875 7.81375 0.0625 6.6875 C1.33039454 3.09079627 1.33039454 3.09079627 0 0 Z " transform="translate(118,40)" style="fill: rgb(243, 118, 6);"/>
  <path d="M0 0 C0 2.83967231 -0.40267181 5.23735711 -1 8 C-1.66 8 -2.32 8 -3 8 C-3.144375 8.78375 -3.28875 9.5675 -3.4375 10.375 C-4 13 -4 13 -5 15 C-5.66 15 -6.32 15 -7 15 C-6.125 8.25 -6.125 8.25 -5 6 C-4.34 6 -3.68 6 -3 6 C-2.690625 5.195625 -2.38125 4.39125 -2.0625 3.5625 C-1 1 -1 1 0 0 Z " transform="translate(48,87)" style="fill: rgb(243, 118, 6);"/>
  <path d="M0 0 C0 4.29 0 8.58 0 13 C-0.99 12.34 -1.98 11.68 -3 11 C-3.40843923 8.28796348 -3.13336867 5.7562858 -3 3 C-4.32 2.67 -5.64 2.34 -7 2 C-4 0 -4 0 0 0 Z " fill="#FBBE9A" transform="translate(98,15)"/>
  <path d="M0 0 C0.66 0.33 1.32 0.66 2 1 C1.34 1.66 0.68 2.32 0 3 C-0.40047444 5.32275177 -0.7397104 7.65739357 -1 10 C-0.01 9.67 0.98 9.34 2 9 C2.66 11.31 3.32 13.62 4 16 C3.01 16 2.02 16 1 16 C-3.03315964 10.01136902 -3.03315964 10.01136902 -2.875 5.1875 C-2 2 -2 2 0 0 Z " transform="translate(70,28)" style="fill: rgb(243, 118, 6);"/>
  <path d="M0 0 C2.31 0 4.62 0 7 0 C5.515 1.485 5.515 1.485 4 3 C4.99 4.485 4.99 4.485 6 6 C3.69 6 1.38 6 -1 6 C-1.33 5.34 -1.66 4.68 -2 4 C-1.0625 1.875 -1.0625 1.875 0 0 Z " transform="translate(90,55)" style="fill: rgb(243, 118, 6);"/>
  <path d="M0 0 C0.66666667 1.33333333 1.33333333 2.66666667 2 4 C2.37125 4.5775 2.7425 5.155 3.125 5.75 C4.46160487 9.18698395 4.12238184 12.32854467 4 16 C2 13 2 13 1.5 9.875 C1.2525 8.451875 1.2525 8.451875 1 7 C0.34 6.67 -0.32 6.34 -1 6 C-0.67 4.02 -0.34 2.04 0 0 Z " transform="translate(16,119)" style="fill: rgb(255, 255, 255);"/>
  <path d="M0 0 C2.1640625 -0.29296875 2.1640625 -0.29296875 4.625 -0.1875 C5.44226563 -0.16042969 6.25953125 -0.13335937 7.1015625 -0.10546875 C8.04128906 -0.05326172 8.04128906 -0.05326172 9 0 C9 1.32 9 2.64 9 4 C8.34 4 7.68 4 7 4 C7 3.34 7 2.68 7 2 C2.545 2.495 2.545 2.495 -2 3 C-1.34 2.01 -0.68 1.02 0 0 Z " transform="translate(155,120)" style="fill: rgb(244, 249, 245);"/>
  <path d="M0 0 C0 2 0 2 -1.6796875 3.69140625 C-2.40414062 4.30886719 -3.12859375 4.92632812 -3.875 5.5625 C-4.59429687 6.18253906 -5.31359375 6.80257812 -6.0546875 7.44140625 C-8 9 -8 9 -10 10 C-8.41650438 4.96160484 -5.719924 0 0 0 Z " transform="translate(57,82)" style="fill: rgb(243, 118, 6);"/>
  <path d="M0 0 C0.33 1.32 0.66 2.64 1 4 C0.1646875 3.2265625 0.1646875 3.2265625 -0.6875 2.4375 C-2.91108235 0.74080807 -2.91108235 0.74080807 -5.5625 1.1875 C-8.21378289 1.95249269 -8.21378289 1.95249269 -11 4 C-11.99 4 -12.98 4 -14 4 C-14 3.34 -14 2.68 -14 2 C-8.77729131 -0.66464729 -5.9180497 -1.32854177 0 0 Z " transform="translate(139,127)" style="fill: rgb(255, 255, 255);"/>
  <path d="M0 0 C0.66 0.33 1.32 0.66 2 1 C2 3.31 2 5.62 2 8 C2.99 8.33 3.98 8.66 5 9 C2 11 2 11 -0.1875 10.625 C-0.785625 10.41875 -1.38375 10.2125 -2 10 C-1.67 9.278125 -1.34 8.55625 -1 7.8125 C0.00603529 4.98302573 0.16977402 2.97104534 0 0 Z " transform="translate(74,44)" style="fill: rgb(243, 118, 6);"/>
  <path d="M0 0 C0.66 0 1.32 0 2 0 C3.42857143 8.57142857 3.42857143 8.57142857 1 12 C1.99 12.33 2.98 12.66 4 13 C2.68 13.33 1.36 13.66 0 14 C-0.33 13.01 -0.66 12.02 -1 11 C-0.33333333 9.66666667 0.33333333 8.33333333 1 7 C1.16750414 4.33290931 1.16750414 4.33290931 1 2 C0.34 1.67 -0.32 1.34 -1 1 C-0.67 0.67 -0.34 0.34 0 0 Z " transform="translate(94,36)" style="fill: rgb(243, 118, 6);"/>
  <path d="M0 0 C0.66 0.33 1.32 0.66 2 1 C-1.625 6.75 -1.625 6.75 -5 9 C-5.33 9.99 -5.66 10.98 -6 12 C-6.66 12 -7.32 12 -8 12 C-6.87548273 9.0280615 -5.77706209 6.66559313 -4 4 C-3.34 4 -2.68 4 -2 4 C-1.34 2.68 -0.68 1.36 0 0 Z " transform="translate(71,81)" style="fill: rgb(243, 118, 6);"/>
  <path d="M0 0 C2.31 1.98 4.62 3.96 7 6 C6.67 6.66 6.34 7.32 6 8 C5.38125 7.649375 4.7625 7.29875 4.125 6.9375 C3.073125 6.4734375 3.073125 6.4734375 2 6 C1.01 6.495 1.01 6.495 0 7 C-0.93423645 3.98968256 -1.04449911 3.13349732 0 0 Z " transform="translate(149,81)" style="fill: rgb(243, 118, 6);"/>
  <path d="M0 0 C-0.33 2.64 -0.66 5.28 -1 8 C-1.33 8 -1.66 8 -2 8 C-2 5.69 -2 3.38 -2 1 C-2.66 1 -3.32 1 -4 1 C-4.33 1.99 -4.66 2.98 -5 4 C-5.99 4 -6.98 4 -8 4 C-8 3.34 -8 2.68 -8 2 C-3.61016949 -1.20338983 -3.61016949 -1.20338983 0 0 Z " transform="translate(121,22)" style="fill: rgb(243, 118, 6);"/>
  <path d="M0 0 C4.75 0.75 4.75 0.75 7 3 C7.125 6.625 7.125 6.625 7 10 C5 7 5 7 4.0625 4.875 C3.08091355 2.65504271 3.08091355 2.65504271 0 2 C0 1.34 0 0.68 0 0 Z " transform="translate(108,55)" style="fill: rgb(243, 118, 6);"/>
  <path d="M0 0 C0.66 0.33 1.32 0.66 2 1 C1.67 1.66 1.34 2.32 1 3 C1.66 3.33 2.32 3.66 3 4 C-1.75 7 -1.75 7 -4 7 C-3.34 5.35 -2.68 3.7 -2 2 C-1.34 2 -0.68 2 0 2 C0 1.34 0 0.68 0 0 Z " transform="translate(132,141)" style="fill: rgb(255, 255, 255);"/>
  <path d="M0 0 C0 0.66 0 1.32 0 2 C-4.95 3.485 -4.95 3.485 -10 5 C-10.66 4.01 -11.32 3.02 -12 2 C-10.37548581 1.66430703 -8.75037083 1.3315204 -7.125 1 C-6.22007813 0.814375 -5.31515625 0.62875 -4.3828125 0.4375 C-2 0 -2 0 0 0 Z " transform="translate(93,69)" style="fill: rgb(243, 118, 6);"/>
  <path d="M0 0 C4.42857143 5.14285714 4.42857143 5.14285714 5 9 C3.68 8.67 2.36 8.34 1 8 C0.67 5.36 0.34 2.72 0 0 Z " transform="translate(158,92)" style="fill: rgb(243, 118, 6);"/>
  <path d="M0 0 C-0.33 0.99 -0.66 1.98 -1 3 C-4.3 2.34 -7.6 1.68 -11 1 C-11 0.67 -11 0.34 -11 0 C-3.57142857 -1.28571429 -3.57142857 -1.28571429 0 0 Z " transform="translate(88,177)" style="fill: rgb(255, 255, 255);"/>
  <path d="M0 0 C-1.4375 1.625 -1.4375 1.625 -4 3 C-7.09705247 2.66417503 -10.01810374 1.88564868 -13 1 C-12.37996094 0.84789062 -11.75992188 0.69578125 -11.12109375 0.5390625 C-9.75704583 0.19239839 -8.40194417 -0.19292123 -7.0625 -0.625 C-4.48800126 -1.09309068 -2.51818343 -0.62954586 0 0 Z " transform="translate(94,142)" style="fill: rgb(255, 255, 255);"/>
  <path d="M0 0 C1.8141927 0.28094582 3.62635001 0.57506433 5.4375 0.875 C6.95150391 1.11863281 6.95150391 1.11863281 8.49609375 1.3671875 C9.32238281 1.57601562 10.14867187 1.78484375 11 2 C11.33 2.66 11.66 3.32 12 4 C8.04 3.67 4.08 3.34 0 3 C0 2.01 0 1.02 0 0 Z " transform="translate(123,67)" style="fill: rgb(243, 118, 6);"/>
  <path d="M0 0 C0.66 0 1.32 0 2 0 C2 0.66 2 1.32 2 2 C2.99 2.33 3.98 2.66 5 3 C5.33 4.98 5.66 6.96 6 9 C2.91910327 6.22719294 1.31224548 3.93673644 0 0 Z " transform="translate(22,139)" style="fill: rgb(255, 255, 255);"/>
  <path d="M0 0 C3.3 0.33 6.6 0.66 10 1 C5.78370866 3.10814567 3.60209225 3.17700355 -1 3 C-0.67 2.01 -0.34 1.02 0 0 Z " transform="translate(106,149)" style="fill: rgb(255, 255, 255);"/>
  <path d="M0 0 C0.66 0.99 1.32 1.98 2 3 C0.35 4.65 -1.3 6.3 -3 8 C-2.25 2.25 -2.25 2.25 0 0 Z " transform="translate(169,135)" style="fill: rgb(247, 250, 248);"/>
  <path d="M0 0 C0.66 0.33 1.32 0.66 2 1 C1.3125 2.9375 1.3125 2.9375 0 5 C-2.625 5.75 -2.625 5.75 -5 6 C-3.35 4.02 -1.7 2.04 0 0 Z " transform="translate(160,128)" style="fill: rgb(255, 255, 255);"/>
  <path d="M0 0 C1.98 0.66 3.96 1.32 6 2 C6 2.66 6 3.32 6 4 C6.66 4.33 7.32 4.66 8 5 C4.33776842 4.50510384 2.33006074 3.94323463 0 1 C0 0.67 0 0.34 0 0 Z " transform="translate(53,167)" style="fill: rgb(255, 255, 255);"/>
  <path d="M0 0 C0.66 0.33 1.32 0.66 2 1 C1.67 2.32 1.34 3.64 1 5 C-0.65 5.33 -2.3 5.66 -4 6 C-2.68 4.02 -1.36 2.04 0 0 Z " transform="translate(112,143)" style="fill: rgb(255, 255, 255);"/>
  <path d="M0 0 C2.475 0.495 2.475 0.495 5 1 C5 2.32 5 3.64 5 5 C4.34 5.66 3.68 6.32 3 7 C3 5.35 3 3.7 3 2 C2.01 1.67 1.02 1.34 0 1 C0 0.67 0 0.34 0 0 Z " transform="translate(133,127)" style="fill: rgb(255, 255, 255);"/>
  <path d="M0 0 C3.37503669 1.1858237 5.64722731 2.27573689 8 5 C5.03 4.505 5.03 4.505 2 4 C2 3.34 2 2.68 2 2 C1.34 2 0.68 2 0 2 C0 1.34 0 0.68 0 0 Z " transform="translate(135,71)" style="fill: rgb(243, 118, 6);"/>
  <path d="" fill="#FEFFFF" transform="translate(0,0)"/>
</svg>